<svg version="1.1" 
xmlns="http://www.w3.org/2000/svg"
viewBox="0 0 100 100" >

	<path d="M18.8,81.8c-8.6-8.6-12.9-19-12.9-31.2c0-12.2,4.3-22.6,12.9-31.2c8.6-8.6,19-12.9,31.2-12.9c12.2,0,22.6,4.3,31.2,12.9
		c8.6,8.6,12.9,19,12.9,31.2c0,12.2-4.3,22.6-12.9,31.2c-8.6,8.6-19,12.9-31.2,12.9C37.8,94.7,27.4,90.4,18.8,81.8z M31.5,55.7
		l12.8-13.5v32.5c0,1.2,0.4,2.2,1.2,3c0.8,0.8,1.8,1.2,3,1.2h2.8c1.2,0,2.2-0.4,3-1.2c0.8-0.8,1.2-1.8,1.2-3V42.2l12.8,13.5
		c0.8,0.8,1.9,1.2,3.1,1.2s2.3-0.4,3.1-1.2l2-2c0.8-0.8,1.2-1.8,1.2-3c0-1.2-0.4-2.2-1.2-3L53,24.3c-0.8-0.8-1.8-1.2-3-1.2
		c-1.2,0-2.2,0.4-3,1.2L23.3,47.7c-0.8,0.8-1.2,1.8-1.2,3c0,1.2,0.4,2.2,1.2,3l2,2c0.8,0.8,1.9,1.2,3.1,1.2
		C29.6,57,30.7,56.6,31.5,55.7z"/>
</svg>
