<svg version="1.1" 
xmlns="http://www.w3.org/2000/svg"
viewBox="0 0 100 100" >
	<path d="M15.5,30c-0.8,0-1.4-0.2-1.9-0.7c-0.5-0.5-0.7-1.1-0.7-1.9v-6.6c0-0.8,0.2-1.4,0.7-1.9c0.5-0.5,1.1-0.7,1.9-0.7h69
		c0.8,0,1.4,0.2,1.9,0.7s0.7,1.1,0.7,1.9v6.6c0,0.8-0.2,1.4-0.7,1.9S85.3,30,84.5,30H15.5z M15.5,56.5c-0.8,0-1.4-0.2-1.9-0.7
		c-0.5-0.5-0.7-1.1-0.7-1.9v-6.6c0-0.8,0.2-1.4,0.7-1.9c0.5-0.5,1.1-0.7,1.9-0.7h69c0.8,0,1.4,0.2,1.9,0.7c0.5,0.5,0.7,1.1,0.7,1.9
		v6.6c0,0.8-0.2,1.4-0.7,1.9c-0.5,0.5-1.1,0.7-1.9,0.7H15.5z M15.5,83.1c-0.8,0-1.4-0.2-1.9-0.7c-0.5-0.5-0.7-1.1-0.7-1.9v-6.6
		c0-0.8,0.2-1.4,0.7-1.9c0.5-0.5,1.1-0.7,1.9-0.7h69c0.8,0,1.4,0.2,1.9,0.7c0.5,0.5,0.7,1.1,0.7,1.9v6.6c0,0.8-0.2,1.4-0.7,1.9
		s-1.1,0.7-1.9,0.7H15.5z"/>
</svg>
