<svg version="1.1" 
xmlns="http://www.w3.org/2000/svg" 
viewBox="0 0 100 100" >

	<path d="M10.3,55.7c3.5-3.5,7.8-5.3,12.7-5.3c5,0,9.2,1.8,12.7,5.3S41,63.5,41,68.5c0,5-1.8,9.2-5.3,12.7S28,86.5,23,86.5
		c-5,0-9.2-1.8-12.7-5.3S5,73.4,5,68.5C5,63.5,6.8,59.2,10.3,55.7z M16.7,74.8c1.8,1.8,3.9,2.7,6.3,2.7c2.4,0,4.5-0.9,6.3-2.7
		c1.8-1.8,2.7-3.9,2.7-6.3c0-2.4-0.9-4.5-2.7-6.3c-1.8-1.8-3.9-2.7-6.3-2.7c-2.4,0-4.5,0.9-6.3,2.7C14.9,63.9,14,66,14,68.5
		C14,70.9,14.9,73,16.7,74.8z M60.7,45l-5.8-4.6l-8.3,7l5.9,3.8c1.3,0.9,2,2.2,2,3.8v18c0,1.2-0.4,2.3-1.3,3.2
		c-0.9,0.9-1.9,1.3-3.2,1.3c-1.2,0-2.3-0.4-3.2-1.3c-0.9-0.9-1.3-1.9-1.3-3.2V57.3L34,49.8c-1.3-0.9-2-2.2-2-3.8
		c0-1.4,0.5-2.5,1.5-3.4l15.8-13.5c0.8-0.7,1.8-1.1,3-1.1c1,0,2,0.3,2.8,1l10,8h7.5c1.2,0,2.3,0.4,3.2,1.3c0.9,0.9,1.3,1.9,1.3,3.2
		c0,1.2-0.4,2.3-1.3,3.2c-0.9,0.9-1.9,1.3-3.2,1.3h-9C62.5,46,61.5,45.6,60.7,45z M66,26c-1.3,1.3-2.9,2-4.8,2c-1.9,0-3.5-0.7-4.8-2
		c-1.3-1.3-2-2.9-2-4.8c0-1.9,0.7-3.5,2-4.8c1.3-1.3,2.9-2,4.8-2c1.9,0,3.5,0.7,4.8,2c1.3,1.3,2,2.9,2,4.8C68,23.1,67.3,24.7,66,26z
		 M64.3,55.7c3.5-3.5,7.8-5.3,12.7-5.3c5,0,9.2,1.8,12.7,5.3S95,63.5,95,68.5c0,5-1.8,9.2-5.3,12.7S82,86.5,77,86.5
		c-5,0-9.2-1.8-12.7-5.3S59,73.4,59,68.5C59,63.5,60.8,59.2,64.3,55.7z M70.7,74.8c1.8,1.8,3.9,2.7,6.3,2.7c2.4,0,4.5-0.9,6.3-2.7
		c1.8-1.8,2.7-3.9,2.7-6.3c0-2.4-0.9-4.5-2.7-6.3c-1.8-1.8-3.9-2.7-6.3-2.7c-2.4,0-4.5,0.9-6.3,2.7C68.9,63.9,68,66,68,68.5
		C68,70.9,68.9,73,70.7,74.8z"/>

</svg>
