
<svg version="1.1" 
id="Layer_1" xmlns="http://www.w3.org/2000/svg" 
viewBox="0 0 100 100" >

	<path d="M92.9,77.5c0.7,0,1.2,0.2,1.6,0.6c0.4,0.4,0.6,1,0.6,1.6v4.5c0,0.7-0.2,1.2-0.6,1.6c-0.4,0.4-1,0.6-1.6,0.6H7.1
		c-0.7,0-1.2-0.2-1.6-0.6c-0.4-0.4-0.6-1-0.6-1.6v-4.5c0-0.7,0.2-1.2,0.6-1.6c0.4-0.4,1-0.6,1.6-0.6h3.5L44.4,31l-7.5-10.4
		c-0.8-1.2-0.7-2.3,0.6-3.1l3.5-2.7c1.2-0.8,2.3-0.7,3.2,0.6l5.8,7.9l5.8-7.9c0.9-1.2,2-1.4,3.2-0.6l3.5,2.7
		c1.2,0.8,1.4,1.9,0.6,3.1L55.6,31l33.7,46.5H92.9z M50,55L33.6,77.5h32.7L50,55z"/>

</svg>
