

<svg version="1.1" 
	xmlns="http://www.w3.org/2000/svg">

<symbol id="twitter" viewBox="0 0 100 100" >
	<path d="M81.1,35.1c0,0.7,0,1.4,0,2.1c0,21.2-16.1,45.6-45.6,45.6c-9.1,0-17.5-2.6-24.6-7.2c1.3,0.1,2.5,0.2,3.9,0.2
		c7.5,0,14.4-2.5,19.9-6.8c-7-0.1-13-4.8-15-11.1c1,0.1,2,0.2,3,0.2c1.4,0,2.9-0.2,4.2-0.5c-7.3-1.5-12.9-7.9-12.9-15.7
		c0,0,0-0.1,0-0.2c2.1,1.2,4.6,1.9,7.2,2c-4.3-2.9-7.1-7.8-7.1-13.3c0-3,0.8-5.7,2.2-8.1c7.9,9.7,19.7,16.1,33,16.8
		c-0.2-1.2-0.4-2.4-0.4-3.7c0-8.8,7.1-16,16-16c4.6,0,8.8,1.9,11.7,5.1c3.6-0.7,7.1-2,10.2-3.9c-1.2,3.7-3.7,6.8-7,8.8
		c3.2-0.3,6.4-1.2,9.2-2.5C86.9,30,84.2,32.8,81.1,35.1z"/>
</symbol>

	<symbol id="facebook" viewBox="0 0 100 100" >
	<path d="M92.8,50.3c0,10.6-3.4,19.9-10.3,27.8S67,90.9,56.7,92.5V62.7h10l1.9-12.4H56.7v-8.1c0-4.4,2.3-6.6,6.9-6.6H69V25.1
		c-3.2-0.6-6.4-0.9-9.5-0.9c-3.3,0-6.2,0.6-8.5,1.9c-2.4,1.3-4.2,3.2-5.6,5.7c-1.4,2.5-2.1,5.5-2.1,9v9.5H32.4v12.4h10.9v29.8
		C33,90.9,24.5,86.1,17.6,78.1S7.2,60.8,7.2,50.3c0-11.8,4.2-21.9,12.5-30.3S38.2,7.5,50,7.5S71.9,11.7,80.3,20S92.8,38.4,92.8,50.3
		z"/>
		</symbol>


		<symbol id="instagram" viewBox="0 0 100 100" >
	<path d="M90.4,34.1c0.1,3.3,0.2,8.8,0.2,16.6c0,7.8-0.1,13.4-0.2,16.6c-0.4,7.4-2.6,13.1-6.6,17.1c-4,4-9.7,6.2-17.1,6.4
		c-3.3,0.2-8.8,0.4-16.6,0.4c-7.8,0-13.4-0.1-16.6-0.4c-7.4-0.4-13-2.5-17-6.5c-1.6-1.4-2.8-3.1-3.8-5.1c-1-1.9-1.7-3.8-2.1-5.6
		c-0.4-1.8-0.6-3.9-0.6-6.3c-0.2-3.3-0.4-8.8-0.4-16.6c0-7.8,0.1-13.4,0.4-16.8c0.4-7.2,2.5-12.8,6.5-16.8c4-4.1,9.6-6.3,17-6.7
		c3.3-0.1,8.8-0.2,16.6-0.2c7.8,0,13.4,0.1,16.6,0.2c7.4,0.4,13.1,2.6,17.1,6.6C87.9,21.1,90.1,26.8,90.4,34.1z M81.7,74.6
		c0.4-1,0.7-2.2,0.9-3.7c0.2-1.5,0.4-3.3,0.5-5.4c0.1-2.1,0.2-3.8,0.2-5.2c0-1.3,0-3.2,0-5.6c0-2.4,0-3.8,0-4.1c0-0.3,0-1.6,0-4
		s0-4.2,0-5.5c0-1.3-0.1-3-0.2-5.2c-0.1-2.1-0.3-3.9-0.5-5.4c-0.2-1.5-0.5-2.7-0.9-3.7c-1.4-3.7-4-6.3-7.8-7.8
		c-1-0.4-2.2-0.7-3.7-0.9c-1.5-0.2-3.3-0.4-5.4-0.5c-2.1-0.1-3.8-0.2-5.1-0.2s-3.1,0-5.6,0c-2.5,0-3.8,0-4.1,0c-0.2,0-1.6,0-4,0
		c-2.4,0-4.3,0-5.6,0c-1.3,0-3,0.1-5.2,0.2c-2.1,0.1-3.9,0.3-5.4,0.5c-1.5,0.2-2.7,0.5-3.7,0.9c-3.7,1.4-6.3,4-7.8,7.8
		c-0.4,1-0.7,2.2-0.9,3.7c-0.2,1.5-0.4,3.3-0.5,5.4c-0.1,2.1-0.2,3.8-0.2,5.1c0,1.3,0,3.1,0,5.6c0,2.5,0,3.8,0,4.1
		c0,0.5,0,1.6,0,3.3c0,1.8,0,3.2,0,4.3c0,1.1,0,2.6,0.1,4.4c0.1,1.8,0.1,3.3,0.3,4.6c0.1,1.3,0.3,2.6,0.5,3.9
		c0.2,1.3,0.5,2.4,0.7,3.3c1.6,3.7,4.2,6.3,7.8,7.8c1,0.4,2.2,0.7,3.7,0.9c1.5,0.2,3.3,0.4,5.4,0.5c2.1,0.1,3.8,0.2,5.1,0.2
		s3.1,0,5.6,0c2.5,0,3.8,0,4.1,0c0.4,0,1.7,0,4.1,0s4.2,0,5.5,0c1.3,0,3-0.1,5.2-0.2c2.1-0.1,3.9-0.3,5.4-0.5
		c1.5-0.2,2.7-0.5,3.7-0.9C77.7,80.9,80.3,78.3,81.7,74.6z M35.3,36c4-4,9-6.1,14.7-6.1c5.8,0,10.7,2,14.7,6.1c4,4,6.1,9,6.1,14.7
		s-2,10.7-6.1,14.7c-4,4-9,6.1-14.7,6.1c-5.8,0-10.7-2-14.7-6.1c-4-4-6.1-9-6.1-14.7S31.3,40.1,35.3,36z M40.5,60.4
		c2.7,2.7,5.8,4,9.6,4c3.7,0,6.9-1.3,9.6-4c2.7-2.7,4-5.8,4-9.6c0-3.7-1.3-6.9-4-9.6c-2.7-2.7-5.9-4-9.6-4c-3.7,0-6.9,1.3-9.6,4
		c-2.7,2.7-4,5.8-4,9.6C36.5,54.5,37.9,57.7,40.5,60.4z M75.1,25.7c0.9,0.9,1.4,2,1.4,3.3c0,1.3-0.5,2.5-1.4,3.4
		c-0.9,1-2,1.4-3.3,1.4c-1.3,0-2.5-0.5-3.4-1.4c-1-1-1.4-2.1-1.4-3.4c0-1.3,0.5-2.4,1.4-3.3c1-0.9,2.1-1.4,3.4-1.4
		C73.1,24.4,74.2,24.8,75.1,25.7z"/>
		</symbol>

		<symbol id="arrowup" viewBox="0 0 100 100" >

	<path d="M18.8,81.8c-8.6-8.6-12.9-19-12.9-31.2c0-12.2,4.3-22.6,12.9-31.2c8.6-8.6,19-12.9,31.2-12.9c12.2,0,22.6,4.3,31.2,12.9
		c8.6,8.6,12.9,19,12.9,31.2c0,12.2-4.3,22.6-12.9,31.2c-8.6,8.6-19,12.9-31.2,12.9C37.8,94.7,27.4,90.4,18.8,81.8z M31.5,55.7
		l12.8-13.5v32.5c0,1.2,0.4,2.2,1.2,3c0.8,0.8,1.8,1.2,3,1.2h2.8c1.2,0,2.2-0.4,3-1.2c0.8-0.8,1.2-1.8,1.2-3V42.2l12.8,13.5
		c0.8,0.8,1.9,1.2,3.1,1.2s2.3-0.4,3.1-1.2l2-2c0.8-0.8,1.2-1.8,1.2-3c0-1.2-0.4-2.2-1.2-3L53,24.3c-0.8-0.8-1.8-1.2-3-1.2
		c-1.2,0-2.2,0.4-3,1.2L23.3,47.7c-0.8,0.8-1.2,1.8-1.2,3c0,1.2,0.4,2.2,1.2,3l2,2c0.8,0.8,1.9,1.2,3.1,1.2
		C29.6,57,30.7,56.6,31.5,55.7z"/>
	</symbol>

	 <symbol id="checked" viewBox="0 0 100 100">
        <!-- the check -->
        <path fill="currentcolor" d="M72.2,43.2L50.7,63.5l-4,3.8c-0.5,0.5-1.3,0.8-2,0.8c-0.7,0-1.5-0.3-2-0.8l-4-3.8L27.8,53.4c-0.5-0.5-0.8-1.2-0.8-1.9
		s0.3-1.4,0.8-1.9l4-3.8c0.5-0.5,1.3-0.8,2-0.8c0.7,0,1.5,0.3,2,0.8l8.7,8.3l19.5-18.5c0.5-0.5,1.3-0.8,2-0.8s1.5,0.3,2,0.8l4,3.8
		c0.5,0.5,0.8,1.2,0.8,1.9C73,42,72.7,42.7,72.2,43.2z"/>
        <!-- the circle -->
        <path d="M50,84.4c-18.5,0-33.5-15-33.5-33.5s15-33.5,33.5-33.5c18.5,0,33.5,15,33.5,33.5S68.5,84.4,50,84.4z M22.1,50.9
		c0,15.4,12.5,27.9,27.9,27.9c15.4,0,27.9-12.5,27.9-27.9S65.4,22.9,50,22.9C34.6,22.9,22.1,35.5,22.1,50.9z"/>
    </symbol>

 <symbol id="user" viewBox="0 0 100 100">
		<path d="M64.9,55.8c6.1,0,11.3,2.2,15.6,6.5C84.9,66.7,87,71.9,87,78v6.9c0,2.2-0.8,4.1-2.3,5.6c-1.5,1.5-3.4,2.3-5.6,2.3H20.9
		c-2.2,0-4.1-0.8-5.6-2.3C13.7,89,13,87.1,13,84.9V78c0-6.1,2.2-11.3,6.5-15.6c4.4-4.4,9.6-6.5,15.6-6.5h2.8
		c3.9,1.8,7.9,2.6,12.1,2.6c4.2,0,8.2-0.9,12.1-2.6H64.9z M65,44.3c-4.1,4.1-9.1,6.2-15,6.2c-5.8,0-10.8-2.1-15-6.2
		c-4.1-4.1-6.2-9.1-6.2-15c0-5.8,2.1-10.8,6.2-15c4.1-4.1,9.1-6.2,15-6.2c5.8,0,10.8,2.1,15,6.2s6.2,9.1,6.2,15
		C71.2,35.2,69.1,40.2,65,44.3z"/>
	</symbol>

<symbol id="mountain" viewBox="0 0 100 100">
	<path d="M94.3,79.5c0.5,0.7,0.7,1.5,0.7,2.4c0,0.7-0.2,1.5-0.6,2.1c-0.8,1.6-2.2,2.4-3.9,2.4H9.6c-0.8,0-1.5-0.2-2.2-0.7
		c-0.8-0.5-1.3-1-1.7-1.7c-0.4-0.7-0.6-1.4-0.6-2.1c0-0.8,0.2-1.6,0.7-2.4l40.4-62.9c0.9-1.4,2.2-2.1,3.8-2.1c1.6,0,2.9,0.7,3.8,2.1
		L94.3,79.5z M50.1,27.3L35.7,49.6l5.3,5.3l9-9H62L50.1,27.3z"/>
		</symbol>

<symbol id="camping" viewBox="0 0 100 100">
	<path d="M92.9,77.5c0.7,0,1.2,0.2,1.6,0.6c0.4,0.4,0.6,1,0.6,1.6v4.5c0,0.7-0.2,1.2-0.6,1.6c-0.4,0.4-1,0.6-1.6,0.6H7.1
		c-0.7,0-1.2-0.2-1.6-0.6c-0.4-0.4-0.6-1-0.6-1.6v-4.5c0-0.7,0.2-1.2,0.6-1.6c0.4-0.4,1-0.6,1.6-0.6h3.5L44.4,31l-7.5-10.4
		c-0.8-1.2-0.7-2.3,0.6-3.1l3.5-2.7c1.2-0.8,2.3-0.7,3.2,0.6l5.8,7.9l5.8-7.9c0.9-1.2,2-1.4,3.2-0.6l3.5,2.7
		c1.2,0.8,1.4,1.9,0.6,3.1L55.6,31l33.7,46.5H92.9z M50,55L33.6,77.5h32.7L50,55z"/>

</symbol>

<symbol id="biking" viewBox="0 0 100 100">
<path d="M10.3,55.7c3.5-3.5,7.8-5.3,12.7-5.3c5,0,9.2,1.8,12.7,5.3S41,63.5,41,68.5c0,5-1.8,9.2-5.3,12.7S28,86.5,23,86.5
		c-5,0-9.2-1.8-12.7-5.3S5,73.4,5,68.5C5,63.5,6.8,59.2,10.3,55.7z M16.7,74.8c1.8,1.8,3.9,2.7,6.3,2.7c2.4,0,4.5-0.9,6.3-2.7
		c1.8-1.8,2.7-3.9,2.7-6.3c0-2.4-0.9-4.5-2.7-6.3c-1.8-1.8-3.9-2.7-6.3-2.7c-2.4,0-4.5,0.9-6.3,2.7C14.9,63.9,14,66,14,68.5
		C14,70.9,14.9,73,16.7,74.8z M60.7,45l-5.8-4.6l-8.3,7l5.9,3.8c1.3,0.9,2,2.2,2,3.8v18c0,1.2-0.4,2.3-1.3,3.2
		c-0.9,0.9-1.9,1.3-3.2,1.3c-1.2,0-2.3-0.4-3.2-1.3c-0.9-0.9-1.3-1.9-1.3-3.2V57.3L34,49.8c-1.3-0.9-2-2.2-2-3.8
		c0-1.4,0.5-2.5,1.5-3.4l15.8-13.5c0.8-0.7,1.8-1.1,3-1.1c1,0,2,0.3,2.8,1l10,8h7.5c1.2,0,2.3,0.4,3.2,1.3c0.9,0.9,1.3,1.9,1.3,3.2
		c0,1.2-0.4,2.3-1.3,3.2c-0.9,0.9-1.9,1.3-3.2,1.3h-9C62.5,46,61.5,45.6,60.7,45z M66,26c-1.3,1.3-2.9,2-4.8,2c-1.9,0-3.5-0.7-4.8-2
		c-1.3-1.3-2-2.9-2-4.8c0-1.9,0.7-3.5,2-4.8c1.3-1.3,2.9-2,4.8-2c1.9,0,3.5,0.7,4.8,2c1.3,1.3,2,2.9,2,4.8C68,23.1,67.3,24.7,66,26z
		 M64.3,55.7c3.5-3.5,7.8-5.3,12.7-5.3c5,0,9.2,1.8,12.7,5.3S95,63.5,95,68.5c0,5-1.8,9.2-5.3,12.7S82,86.5,77,86.5
		c-5,0-9.2-1.8-12.7-5.3S59,73.4,59,68.5C59,63.5,60.8,59.2,64.3,55.7z M70.7,74.8c1.8,1.8,3.9,2.7,6.3,2.7c2.4,0,4.5-0.9,6.3-2.7
		c1.8-1.8,2.7-3.9,2.7-6.3c0-2.4-0.9-4.5-2.7-6.3c-1.8-1.8-3.9-2.7-6.3-2.7c-2.4,0-4.5,0.9-6.3,2.7C68.9,63.9,68,66,68,68.5
		C68,70.9,68.9,73,70.7,74.8z"/>
</symbol>

<symbol id="shopping-basket" viewBox="0 0 100 100">
	<path d="M97.8,43.9v2.7c0,1.1-0.4,2-1.2,2.8c-0.8,0.8-1.7,1.2-2.8,1.2h-1.3l-4.3,30.3c-0.2,1.2-0.7,2.3-1.4,3.4
		c-0.7,1-1.7,1.9-2.8,2.5c-1.2,0.6-2.4,0.9-3.7,0.9H19.8c-2,0-3.7-0.6-5.2-1.9c-1.5-1.3-2.4-2.9-2.7-4.9L7.6,50.5H6.2
		c-1.1,0-2-0.4-2.8-1.2c-0.8-0.8-1.2-1.7-1.2-2.8v-2.7c0-1.1,0.4-2,1.2-2.8c0.8-0.8,1.7-1.2,2.8-1.2h11.1l17.7-24.4
		c0.9-1.2,2-1.9,3.5-2.2c1.4-0.2,2.8,0.1,4,1c1.2,0.9,1.9,2,2.2,3.5c0.2,1.4-0.1,2.8-1,4L30.4,39.9h39.1L56.3,21.9
		c-0.9-1.2-1.2-2.5-1-4c0.2-1.4,0.9-2.6,2.2-3.5c1.2-0.9,2.5-1.2,4-1c1.4,0.2,2.6,0.9,3.5,2.2l17.7,24.4h11.1c1.1,0,2,0.4,2.8,1.2
		C97.4,41.9,97.8,42.8,97.8,43.9z M35.4,73.1V54.5c0-1.1-0.4-2-1.2-2.8c-0.8-0.8-1.7-1.2-2.8-1.2c-1.1,0-2,0.4-2.8,1.2
		c-0.8,0.8-1.2,1.7-1.2,2.8v18.6c0,1.1,0.4,2,1.2,2.8c0.8,0.8,1.7,1.2,2.8,1.2c1.1,0,2-0.4,2.8-1.2C35,75.1,35.4,74.2,35.4,73.1z
		 M54,73.1V54.5c0-1.1-0.4-2-1.2-2.8c-0.8-0.8-1.7-1.2-2.8-1.2c-1.1,0-2,0.4-2.8,1.2c-0.8,0.8-1.2,1.7-1.2,2.8v18.6
		c0,1.1,0.4,2,1.2,2.8c0.8,0.8,1.7,1.2,2.8,1.2c1.1,0,2-0.4,2.8-1.2C53.6,75.1,54,74.2,54,73.1z M72.5,73.1V54.5
		c0-1.1-0.4-2-1.2-2.8c-0.8-0.8-1.7-1.2-2.8-1.2s-2,0.4-2.8,1.2c-0.8,0.8-1.2,1.7-1.2,2.8v18.6c0,1.1,0.4,2,1.2,2.8
		c0.8,0.8,1.7,1.2,2.8,1.2s2-0.4,2.8-1.2C72.2,75.1,72.5,74.2,72.5,73.1z"/>
</symbol>

<symbol id="bars" viewBox="0 0 100 100">
<path d="M15.5,30c-0.8,0-1.4-0.2-1.9-0.7c-0.5-0.5-0.7-1.1-0.7-1.9v-6.6c0-0.8,0.2-1.4,0.7-1.9c0.5-0.5,1.1-0.7,1.9-0.7h69
		c0.8,0,1.4,0.2,1.9,0.7s0.7,1.1,0.7,1.9v6.6c0,0.8-0.2,1.4-0.7,1.9S85.3,30,84.5,30H15.5z M15.5,56.5c-0.8,0-1.4-0.2-1.9-0.7
		c-0.5-0.5-0.7-1.1-0.7-1.9v-6.6c0-0.8,0.2-1.4,0.7-1.9c0.5-0.5,1.1-0.7,1.9-0.7h69c0.8,0,1.4,0.2,1.9,0.7c0.5,0.5,0.7,1.1,0.7,1.9
		v6.6c0,0.8-0.2,1.4-0.7,1.9c-0.5,0.5-1.1,0.7-1.9,0.7H15.5z M15.5,83.1c-0.8,0-1.4-0.2-1.9-0.7c-0.5-0.5-0.7-1.1-0.7-1.9v-6.6
		c0-0.8,0.2-1.4,0.7-1.9c0.5-0.5,1.1-0.7,1.9-0.7h69c0.8,0,1.4,0.2,1.9,0.7c0.5,0.5,0.7,1.1,0.7,1.9v6.6c0,0.8-0.2,1.4-0.7,1.9
		s-1.1,0.7-1.9,0.7H15.5z"/>
		</symbol>

<symbol id="logo" viewBox="0 0 100 100">

		<path d="M5.6,5c1.7,0,3.1,0.9,4,2.8l42.7,82.3c0.5,0.9,0.8,2,0.8,3.1c0,0.9-0.2,1.8-0.6,2.8c-0.9,2.2-2.3,3.1-4.1,3.1H4.7"/>	

		<path d="M48.3,8.4c3.7,1.7,6.5,4.3,8.1,8.3c1.7,3.8,1.8,7.7,0.5,11.5c-1.4,3.8-3.8,6.5-7.5,8.1c-3.5,1.5-7.2,1.5-11.1-0.2
		c-3.7-1.7-6.5-4.3-8.1-8.3c-1.7-3.8-1.8-7.7-0.5-11.5s3.8-6.5,7.5-8.1C40.9,6.7,44.6,6.7,48.3,8.4z M36.6,19.3
		c-0.8,2-0.6,3.8,0.2,5.7c0.8,1.8,2.2,3.2,4,4.1c1.8,0.8,3.7,0.9,5.5,0.2c1.8-0.8,3.1-2.2,3.7-4c0.8-2,0.6-3.8-0.2-5.7
		c-0.8-1.8-2.2-3.2-4-4c-1.8-0.8-3.7-0.9-5.5-0.2C38.6,16,37.4,17.3,36.6,19.3z M73,44.1l1.4-6l-7.8-4.3l-0.8,5.8
		c-0.3,1.4-0.9,2.2-2.2,2.8l-13.1,5.7c-0.9,0.3-1.8,0.3-2.8,0c-0.9-0.5-1.7-1.1-2-2c-0.5-0.9-0.5-1.8-0.2-2.9c0.3-0.9,0.9-1.7,1.8-2
		l11.4-4.9l1.7-11.4c0.3-1.4,0.9-2.2,2.2-2.8c1.1-0.5,2-0.5,2.9,0.2l15.1,8c0.8,0.5,1.4,1.1,1.8,2c0.3,0.8,0.5,1.7,0.2,2.5L80.2,45
		l2.5,5.8c0.5,0.9,0.5,1.8,0.2,2.9c-0.3,0.9-0.9,1.7-1.8,2c-0.9,0.3-1.8,0.3-2.8,0c-0.9-0.5-1.7-1.1-2-2l-3.1-7.1
		C72.9,45.7,72.9,45,73,44.1z M66.4,50.2c3.7,1.7,6.5,4.3,8.1,8.3c1.7,3.8,1.8,7.7,0.5,11.5c-1.4,3.8-3.8,6.5-7.5,8.1
		c-3.5,1.5-7.2,1.5-11.1-0.2c-3.7-1.7-6.5-4.3-8.1-8.3c-1.7-3.8-1.8-7.7-0.5-11.5s3.8-6.5,7.5-8.1C59.1,48.7,62.7,48.7,66.4,50.2z
		M54.8,61.3c-0.8,2-0.6,3.8,0.2,5.7c0.8,1.8,2.2,3.2,4,4.1c1.8,0.8,3.7,0.9,5.5,0.2c1.8-0.8,3.1-2.2,3.7-4c0.8-2,0.6-3.8-0.2-5.7
		c-0.8-1.8-2.2-3.2-4-4.1c-1.8-0.8-3.7-0.9-5.5-0.2C56.6,58,55.4,59.3,54.8,61.3z M88.5,42.4c-1.4-0.6-2.5-1.7-3.1-3.1
		c-0.6-1.4-0.6-2.9-0.2-4.3c0.5-1.4,1.4-2.5,2.8-3.1c1.4-0.6,2.8-0.6,4.1,0c1.4,0.6,2.5,1.7,3.1,3.1s0.6,2.9,0.2,4.3
		c-0.5,1.4-1.4,2.5-2.8,3.1C91.3,43,89.9,43,88.5,42.4z"/>
		</symbol>

<symbol id="inbox" viewBox="0 0 100 100">

		<path d="M91.9,82.5c0,1.9-1.6,3.5-3.5,3.5H11.6c-1.9,0-3.5-1.6-3.5-3.5V56.2c0-2,0.6-4.9,1.4-6.7l13-30.1c0.8-1.8,2.9-3.2,4.9-3.2
		h45.4c1.9,0,4.1,1.4,4.9,3.2l13,30.1c0.8,1.9,1.4,4.7,1.4,6.7V82.5z M81.2,54.6C81,54.3,81,54,80.9,53.7L69.3,26.6H30.7L19.1,53.7
		C19,54,19,54.3,18.8,54.6h17.2l5.2,10.5h17.5l5.2-10.5H81.2z"/>

</symbol>

<symbol id="circle-notch" viewBox="0 0 100 100">

    <path d="M50,96.4C24.9,96.4,4.6,76.1,4.6,51c0-22.8,16.9-41.8,38.9-44.9v13.2c-14.8,3-25.9,16.1-25.9,31.7
		c0,17.9,14.5,32.4,32.4,32.4c17.9,0,32.4-14.5,32.4-32.4c0-15.6-11.1-28.7-25.9-31.7V6.1c22,3.1,38.9,22.1,38.9,44.9
		C95.3,76.1,75,96.4,50,96.4z"/>
		</symbol>
		
<symbol id="spinner" viewBox="0 0 100 100">
		<path d="M15.6,57.2c-3.5,0-6.3-2.8-6.3-6.3s2.8-6.3,6.3-6.3s6.3,2.8,6.3,6.3S19.1,57.2,15.6,57.2z M25.7,34.5
		c-4.3,0-7.8-3.5-7.8-7.8c0-4.3,3.5-7.8,7.8-7.8c4.3,0,7.8,3.5,7.8,7.8C33.5,30.9,30,34.5,25.7,34.5z M25.7,81.6
		c-3.4,0-6.3-2.8-6.3-6.3c0-3.5,2.8-6.3,6.3-6.3c3.5,0,6.3,2.8,6.3,6.3C31.9,78.7,29.1,81.6,25.7,81.6z M50,26
		c-5.2,0-9.4-4.2-9.4-9.4s4.2-9.4,9.4-9.4s9.4,4.2,9.4,9.4S55.2,26,50,26z M50,91.6c-3.5,0-6.3-2.8-6.3-6.3s2.8-6.3,6.3-6.3
		c3.5,0,6.3,2.8,6.3,6.3S53.5,91.6,50,91.6z M74.3,37.6c-6.1,0-10.9-4.9-10.9-10.9c0-6,4.9-10.9,10.9-10.9c6,0,10.9,4.9,10.9,10.9
		C85.3,32.7,80.3,37.6,74.3,37.6z M74.3,81.6c-3.5,0-6.3-2.8-6.3-6.3c0-3.5,2.8-6.3,6.3-6.3c3.4,0,6.3,2.8,6.3,6.3
		C80.6,78.7,77.7,81.6,74.3,81.6z M84.4,57.2c-3.5,0-6.3-2.8-6.3-6.3s2.8-6.3,6.3-6.3s6.3,2.8,6.3,6.3S87.9,57.2,84.4,57.2z"/>
		</symbol>

<symbol id="smiley" viewBox="0 0 100 100">
		<path d="M18,19c8.8-8.8,19.5-13.2,32-13.2c12.5,0,23.2,4.4,32,13.2c8.8,8.8,13.2,19.5,13.2,32c0,12.5-4.4,23.2-13.2,32
		c-8.8,8.8-19.5,13.2-32,13.2c-12.5,0-23.2-4.4-32-13.2C9.2,74.2,4.8,63.6,4.8,51C4.8,38.5,9.2,27.9,18,19z M24.2,76.9
		C31.3,84,39.9,87.5,50,87.5c10.1,0,18.7-3.6,25.8-10.7S86.5,61.1,86.5,51c0-10.1-3.6-18.7-10.7-25.8S60.1,14.6,50,14.6
		c-10.1,0-18.7,3.6-25.8,10.7C17.1,32.4,13.5,41,13.5,51C13.5,61.1,17.1,69.7,24.2,76.9z M65.3,61.4c0.7-1,1.7-1.5,2.9-1.6
		c1.2-0.1,2.3,0.2,3.2,1c0.9,0.8,1.4,1.8,1.6,3c0.1,1.2-0.2,2.3-0.9,3.1C66.4,73.8,59,77.3,50,77.3c-9,0-16.4-3.5-22.1-10.4
		c-0.7-0.8-1-1.9-0.9-3.1c0.1-1.2,0.6-2.2,1.6-3c0.9-0.8,2-1.1,3.2-1c1.2,0.1,2.2,0.7,2.9,1.6c4,4.7,9.1,7.1,15.3,7.1
		C56.2,68.6,61.3,66.2,65.3,61.4z M39.5,46.4c-1.2,1.2-2.5,1.7-4.1,1.7c-1.6,0-3-0.6-4.1-1.7c-1.2-1.2-1.7-2.5-1.7-4.1
		c0-1.6,0.6-2.9,1.7-4.1c1.2-1.2,2.5-1.7,4.1-1.7c1.6,0,2.9,0.6,4.1,1.7c1.2,1.2,1.7,2.5,1.7,4.1C41.2,43.9,40.7,45.2,39.5,46.4z
		 M68.7,46.4c-1.2,1.2-2.5,1.7-4.1,1.7c-1.6,0-2.9-0.6-4.1-1.7c-1.2-1.2-1.7-2.5-1.7-4.1c0-1.6,0.6-2.9,1.7-4.1
		c1.2-1.2,2.5-1.7,4.1-1.7c1.6,0,2.9,0.6,4.1,1.7c1.2,1.2,1.7,2.5,1.7,4.1C70.4,43.9,69.8,45.2,68.7,46.4z"/>

		</symbol>
<symbol id="phone"  viewBox="0 0 100 100">
		<path d="M92.6,69.3c1.8,0.7,2.7,2,2.7,3.9c0,0.4-0.1,0.6-0.2,0.9l-4.2,18.4c-0.1,0.6-0.4,1.2-0.8,1.7c-0.4,0.5-0.9,0.9-1.5,1.2
		c-0.6,0.3-1.2,0.4-1.8,0.4c-22.7,0-42-8-58-24.1c-16-16-24.1-35.4-24.1-58c0-0.6,0.1-1.2,0.4-1.8c0.3-0.6,0.7-1.1,1.2-1.5
		c0.5-0.4,1.1-0.7,1.7-0.8l18.4-4.2c0.2-0.1,0.5-0.2,0.9-0.2c1.9,0,3.2,0.9,3.9,2.7l8.5,19.8c0.2,0.5,0.4,1,0.4,1.6
		c0,1.3-0.5,2.4-1.6,3.4l-10.6,8.7c2.7,5.9,7.1,11.9,13.3,18c6.1,6.1,12.1,10.6,18,13.3l8.7-10.6c0.9-1.1,2.1-1.6,3.4-1.6
		c0.6,0,1.1,0.1,1.6,0.4L92.6,69.3z"/>

		</symbol>

<symbol id="calendar"  viewBox="0 0 100 100">

		<path d="M90.7,88.6c0,3.4-2.8,6.3-6.3,6.3H15.6c-3.4,0-6.3-2.8-6.3-6.3V25.9c0-3.4,2.8-6.3,6.3-6.3h6.3V15c0-4.3,3.5-7.8,7.8-7.8
		h3.1c4.3,0,7.8,3.5,7.8,7.8v4.7h18.8V15c0-4.3,3.5-7.8,7.8-7.8h3.1c4.3,0,7.8,3.5,7.8,7.8v4.7h6.3c3.4,0,6.3,2.8,6.3,6.3V88.6z
		 M29.6,52.5V38.5H15.6v14.1H29.6z M29.6,71.3V55.7H15.6v15.7H29.6z M29.6,88.6V74.5H15.6v14.1H29.6z M34.3,15
		c0-0.8-0.7-1.6-1.6-1.6h-3.1c-0.8,0-1.6,0.7-1.6,1.6v14.1c0,0.8,0.7,1.6,1.6,1.6h3.1c0.8,0,1.6-0.7,1.6-1.6V15z M48.4,52.5V38.5
		H32.8v14.1H48.4z M48.4,71.3V55.7H32.8v15.7H48.4z M48.4,88.6V74.5H32.8v14.1H48.4z M67.2,52.5V38.5H51.6v14.1H67.2z M67.2,71.3
		V55.7H51.6v15.7H67.2z M67.2,88.6V74.5H51.6v14.1H67.2z M71.9,15c0-0.8-0.7-1.6-1.6-1.6h-3.1c-0.8,0-1.6,0.7-1.6,1.6v14.1
		c0,0.8,0.7,1.6,1.6,1.6h3.1c0.8,0,1.6-0.7,1.6-1.6V15z M84.4,52.5V38.5H70.3v14.1H84.4z M84.4,71.3V55.7H70.3v15.7H84.4z
		 M84.4,88.6V74.5H70.3v14.1H84.4z"/>

		 </symbol>


<symbol id="envelope"  viewBox="0 0 100 100">

<path d="M81.6,41.9c-6.8,4.7-13.6,9.4-20.4,14.2c-2.8,2-7.6,6-11.2,6h0h0c-3.5,0-8.3-4-11.2-6c-6.8-4.8-13.6-9.5-20.4-14.2
		c-3.1-2.1-7.5-7-7.5-11c0-4.3,2.3-7.9,7-7.9h64.2c3.8,0,7,3.1,7,7C89.1,34.8,85.5,39.2,81.6,41.9z M89.1,77.4c0,3.8-3.1,7-7,7H17.9
		c-3.8,0-7-3.1-7-7V42.8c1.3,1.4,2.8,2.7,4.4,3.8c7.2,4.9,14.6,9.9,21.7,15c3.7,2.7,8.2,6,13,6h0h0c4.8,0,9.3-3.3,13-6
		c7.1-5.1,14.4-10.1,21.7-15c1.6-1.1,3.1-2.4,4.4-3.8V77.4z"/>
</symbol>


<symbol id="tachometer"  viewBox="0 0 100 100">
<path d="M82.9,83.1c-0.5,0.8-1.4,1.3-2.4,1.3H19.4c-1,0-1.8-0.5-2.4-1.3c-4-6.3-6.1-13.6-6.1-21.1C10.9,40.5,28.5,23,50,23
		C71.6,23,89.1,40.5,89.1,62C89.1,69.5,86.9,76.8,82.9,83.1z M22.1,56.4c-3.1,0-5.6,2.5-5.6,5.6s2.5,5.6,5.6,5.6s5.6-2.5,5.6-5.6
		S25.2,56.4,22.1,56.4z M30.5,36.9c-3.1,0-5.6,2.5-5.6,5.6s2.5,5.6,5.6,5.6s5.6-2.5,5.6-5.6S33.6,36.9,30.5,36.9z M59.1,46.8
		c0.3-1.5-0.5-3-2-3.4c-1.5-0.4-3,0.5-3.4,2l-4.4,16.7c-3.4,0.3-6.5,2.7-7.4,6.2c-1.2,4.5,1.5,9.1,6,10.2c4.5,1.2,9.1-1.5,10.2-6
		c0.9-3.5-0.6-7.1-3.4-9.1L59.1,46.8z M50,28.5c-3.1,0-5.6,2.5-5.6,5.6s2.5,5.6,5.6,5.6s5.6-2.5,5.6-5.6S53.1,28.5,50,28.5z
		 M69.5,36.9c-3.1,0-5.6,2.5-5.6,5.6s2.5,5.6,5.6,5.6c3.1,0,5.6-2.5,5.6-5.6S72.6,36.9,69.5,36.9z M77.9,56.4
		c-3.1,0-5.6,2.5-5.6,5.6s2.5,5.6,5.6,5.6c3.1,0,5.6-2.5,5.6-5.6S81,56.4,77.9,56.4z"/>
</symbol>

<symbol id="flask"  viewBox="0 0 100 100">
<path d="M78.2,88.6H21.7c-6.9,0-9.5-4.8-5.8-10.6l24.7-38.9V19.6h-3.1c-1.7,0-3.1-1.4-3.1-3.1s1.4-3.1,3.1-3.1h25.1
		c1.7,0,3.1,1.4,3.1,3.1s-1.4,3.1-3.1,3.1h-3.1v19.6l24.7,38.9C87.8,83.9,85.2,88.6,78.2,88.6z M32.5,63.5h34.9l-13.3-21l-1-1.5
		v-1.8V19.6h-6.3v19.6V41l-1,1.5L32.5,63.5z"/>

</symbol>
<symbol id="trash"  viewBox="0 0 100 100">
	<path d="M86.2,19.1c0.8,0,1.5,0.3,2,0.8c0.5,0.5,0.8,1.2,0.8,2v2.8c0,0.8-0.3,1.5-0.8,2c-0.5,0.5-1.2,0.8-2,0.8h-2.8v59.1
		c0,2.3-0.8,4.3-2.4,6c-1.6,1.6-3.6,2.5-5.9,2.5H24.9c-2.3,0-4.3-0.8-5.9-2.5c-1.6-1.6-2.4-3.6-2.4-6V27.5h-2.8
		c-0.8,0-1.5-0.3-2-0.8c-0.5-0.5-0.8-1.2-0.8-2v-2.8c0-0.8,0.3-1.5,0.8-2c0.5-0.5,1.2-0.8,2-0.8h14.3L34,9c0.7-1.1,1.7-2,3.1-2.8
		C38.5,5.4,39.9,5,41.3,5h17.4c0.9,0,1.9,0.2,2.8,0.5c0.9,0.4,1.8,0.9,2.6,1.5c0.8,0.6,1.4,1.3,1.9,2l5.9,10H86.2z M75.1,86.6V27.5
		H24.9v59.1H75.1z M38.2,78.1c-1.4,0-2.1-0.7-2.1-2.1V38c0-1.4,0.7-2.1,2.1-2.1h4.2c1.4,0,2.1,0.7,2.1,2.1v38c0,1.4-0.7,2.1-2.1,2.1
		H38.2z M40.9,14l-3.1,5.1h24.4L59.1,14c-0.2-0.4-0.5-0.5-0.9-0.5H41.8C41.5,13.4,41.2,13.6,40.9,14z M57.7,78.1
		c-1.4,0-2.1-0.7-2.1-2.1V38c0-1.4,0.7-2.1,2.1-2.1h4.2c1.4,0,2.1,0.7,2.1,2.1v38c0,1.4-0.7,2.1-2.1,2.1H57.7z"/>
		</symbol>
</svg>