<svg version="1.1" 
xmlns="http://www.w3.org/2000/svg"
viewBox="0 0 100 100" >
	<path d="M90.4,34.1c0.1,3.3,0.2,8.8,0.2,16.6c0,7.8-0.1,13.4-0.2,16.6c-0.4,7.4-2.6,13.1-6.6,17.1c-4,4-9.7,6.2-17.1,6.4
		c-3.3,0.2-8.8,0.4-16.6,0.4c-7.8,0-13.4-0.1-16.6-0.4c-7.4-0.4-13-2.5-17-6.5c-1.6-1.4-2.8-3.1-3.8-5.1c-1-1.9-1.7-3.8-2.1-5.6
		c-0.4-1.8-0.6-3.9-0.6-6.3c-0.2-3.3-0.4-8.8-0.4-16.6c0-7.8,0.1-13.4,0.4-16.8c0.4-7.2,2.5-12.8,6.5-16.8c4-4.1,9.6-6.3,17-6.7
		c3.3-0.1,8.8-0.2,16.6-0.2c7.8,0,13.4,0.1,16.6,0.2c7.4,0.4,13.1,2.6,17.1,6.6C87.9,21.1,90.1,26.8,90.4,34.1z M81.7,74.6
		c0.4-1,0.7-2.2,0.9-3.7c0.2-1.5,0.4-3.3,0.5-5.4c0.1-2.1,0.2-3.8,0.2-5.2c0-1.3,0-3.2,0-5.6c0-2.4,0-3.8,0-4.1c0-0.3,0-1.6,0-4
		s0-4.2,0-5.5c0-1.3-0.1-3-0.2-5.2c-0.1-2.1-0.3-3.9-0.5-5.4c-0.2-1.5-0.5-2.7-0.9-3.7c-1.4-3.7-4-6.3-7.8-7.8
		c-1-0.4-2.2-0.7-3.7-0.9c-1.5-0.2-3.3-0.4-5.4-0.5c-2.1-0.1-3.8-0.2-5.1-0.2s-3.1,0-5.6,0c-2.5,0-3.8,0-4.1,0c-0.2,0-1.6,0-4,0
		c-2.4,0-4.3,0-5.6,0c-1.3,0-3,0.1-5.2,0.2c-2.1,0.1-3.9,0.3-5.4,0.5c-1.5,0.2-2.7,0.5-3.7,0.9c-3.7,1.4-6.3,4-7.8,7.8
		c-0.4,1-0.7,2.2-0.9,3.7c-0.2,1.5-0.4,3.3-0.5,5.4c-0.1,2.1-0.2,3.8-0.2,5.1c0,1.3,0,3.1,0,5.6c0,2.5,0,3.8,0,4.1
		c0,0.5,0,1.6,0,3.3c0,1.8,0,3.2,0,4.3c0,1.1,0,2.6,0.1,4.4c0.1,1.8,0.1,3.3,0.3,4.6c0.1,1.3,0.3,2.6,0.5,3.9
		c0.2,1.3,0.5,2.4,0.7,3.3c1.6,3.7,4.2,6.3,7.8,7.8c1,0.4,2.2,0.7,3.7,0.9c1.5,0.2,3.3,0.4,5.4,0.5c2.1,0.1,3.8,0.2,5.1,0.2
		s3.1,0,5.6,0c2.5,0,3.8,0,4.1,0c0.4,0,1.7,0,4.1,0s4.2,0,5.5,0c1.3,0,3-0.1,5.2-0.2c2.1-0.1,3.9-0.3,5.4-0.5
		c1.5-0.2,2.7-0.5,3.7-0.9C77.7,80.9,80.3,78.3,81.7,74.6z M35.3,36c4-4,9-6.1,14.7-6.1c5.8,0,10.7,2,14.7,6.1c4,4,6.1,9,6.1,14.7
		s-2,10.7-6.1,14.7c-4,4-9,6.1-14.7,6.1c-5.8,0-10.7-2-14.7-6.1c-4-4-6.1-9-6.1-14.7S31.3,40.1,35.3,36z M40.5,60.4
		c2.7,2.7,5.8,4,9.6,4c3.7,0,6.9-1.3,9.6-4c2.7-2.7,4-5.8,4-9.6c0-3.7-1.3-6.9-4-9.6c-2.7-2.7-5.9-4-9.6-4c-3.7,0-6.9,1.3-9.6,4
		c-2.7,2.7-4,5.8-4,9.6C36.5,54.5,37.9,57.7,40.5,60.4z M75.1,25.7c0.9,0.9,1.4,2,1.4,3.3c0,1.3-0.5,2.5-1.4,3.4
		c-0.9,1-2,1.4-3.3,1.4c-1.3,0-2.5-0.5-3.4-1.4c-1-1-1.4-2.1-1.4-3.4c0-1.3,0.5-2.4,1.4-3.3c1-0.9,2.1-1.4,3.4-1.4
		C73.1,24.4,74.2,24.8,75.1,25.7z"/>
</svg>
