<svg version="1.1" 
id="Layer_1" xmlns="http://www.w3.org/2000/svg"
viewBox="0 0 100 100" >
	<path d="M92.6,69.3c1.8,0.7,2.7,2,2.7,3.9c0,0.4-0.1,0.6-0.2,0.9l-4.2,18.4c-0.1,0.6-0.4,1.2-0.8,1.7c-0.4,0.5-0.9,0.9-1.5,1.2
		c-0.6,0.3-1.2,0.4-1.8,0.4c-22.7,0-42-8-58-24.1c-16-16-24.1-35.4-24.1-58c0-0.6,0.1-1.2,0.4-1.8c0.3-0.6,0.7-1.1,1.2-1.5
		c0.5-0.4,1.1-0.7,1.7-0.8l18.4-4.2c0.2-0.1,0.5-0.2,0.9-0.2c1.9,0,3.2,0.9,3.9,2.7l8.5,19.8c0.2,0.5,0.4,1,0.4,1.6
		c0,1.3-0.5,2.4-1.6,3.4l-10.6,8.7c2.7,5.9,7.1,11.9,13.3,18c6.1,6.1,12.1,10.6,18,13.3l8.7-10.6c0.9-1.1,2.1-1.6,3.4-1.6
		c0.6,0,1.1,0.1,1.6,0.4L92.6,69.3z"/>

</svg>
