<svg version="1.1" 
id="Layer_1" xmlns="http://www.w3.org/2000/svg" 
viewBox="0 0 100 100" >
	<path d="M18,19c8.8-8.8,19.5-13.2,32-13.2c12.5,0,23.2,4.4,32,13.2c8.8,8.8,13.2,19.5,13.2,32c0,12.5-4.4,23.2-13.2,32
		c-8.8,8.8-19.5,13.2-32,13.2c-12.5,0-23.2-4.4-32-13.2C9.2,74.2,4.8,63.6,4.8,51C4.8,38.5,9.2,27.9,18,19z M24.2,76.9
		C31.3,84,39.9,87.5,50,87.5c10.1,0,18.7-3.6,25.8-10.7S86.5,61.1,86.5,51c0-10.1-3.6-18.7-10.7-25.8S60.1,14.6,50,14.6
		c-10.1,0-18.7,3.6-25.8,10.7C17.1,32.4,13.5,41,13.5,51C13.5,61.1,17.1,69.7,24.2,76.9z M65.3,61.4c0.7-1,1.7-1.5,2.9-1.6
		c1.2-0.1,2.3,0.2,3.2,1c0.9,0.8,1.4,1.8,1.6,3c0.1,1.2-0.2,2.3-0.9,3.1C66.4,73.8,59,77.3,50,77.3c-9,0-16.4-3.5-22.1-10.4
		c-0.7-0.8-1-1.9-0.9-3.1c0.1-1.2,0.6-2.2,1.6-3c0.9-0.8,2-1.1,3.2-1c1.2,0.1,2.2,0.7,2.9,1.6c4,4.7,9.1,7.1,15.3,7.1
		C56.2,68.6,61.3,66.2,65.3,61.4z M39.5,46.4c-1.2,1.2-2.5,1.7-4.1,1.7c-1.6,0-3-0.6-4.1-1.7c-1.2-1.2-1.7-2.5-1.7-4.1
		c0-1.6,0.6-2.9,1.7-4.1c1.2-1.2,2.5-1.7,4.1-1.7c1.6,0,2.9,0.6,4.1,1.7c1.2,1.2,1.7,2.5,1.7,4.1C41.2,43.9,40.7,45.2,39.5,46.4z
		 M68.7,46.4c-1.2,1.2-2.5,1.7-4.1,1.7c-1.6,0-2.9-0.6-4.1-1.7c-1.2-1.2-1.7-2.5-1.7-4.1c0-1.6,0.6-2.9,1.7-4.1
		c1.2-1.2,2.5-1.7,4.1-1.7c1.6,0,2.9,0.6,4.1,1.7c1.2,1.2,1.7,2.5,1.7,4.1C70.4,43.9,69.8,45.2,68.7,46.4z"/>
</svg>
