<svg version="1.1" id="Layer_1" 
xmlns="http://www.w3.org/2000/svg" 
viewBox="0 0 100 100">
	<path d="M15.6,57.2c-3.5,0-6.3-2.8-6.3-6.3s2.8-6.3,6.3-6.3s6.3,2.8,6.3,6.3S19.1,57.2,15.6,57.2z M25.7,34.5
		c-4.3,0-7.8-3.5-7.8-7.8c0-4.3,3.5-7.8,7.8-7.8c4.3,0,7.8,3.5,7.8,7.8C33.5,30.9,30,34.5,25.7,34.5z M25.7,81.6
		c-3.4,0-6.3-2.8-6.3-6.3c0-3.5,2.8-6.3,6.3-6.3c3.5,0,6.3,2.8,6.3,6.3C31.9,78.7,29.1,81.6,25.7,81.6z M50,26
		c-5.2,0-9.4-4.2-9.4-9.4s4.2-9.4,9.4-9.4s9.4,4.2,9.4,9.4S55.2,26,50,26z M50,91.6c-3.5,0-6.3-2.8-6.3-6.3s2.8-6.3,6.3-6.3
		c3.5,0,6.3,2.8,6.3,6.3S53.5,91.6,50,91.6z M74.3,37.6c-6.1,0-10.9-4.9-10.9-10.9c0-6,4.9-10.9,10.9-10.9c6,0,10.9,4.9,10.9,10.9
		C85.3,32.7,80.3,37.6,74.3,37.6z M74.3,81.6c-3.5,0-6.3-2.8-6.3-6.3c0-3.5,2.8-6.3,6.3-6.3c3.4,0,6.3,2.8,6.3,6.3
		C80.6,78.7,77.7,81.6,74.3,81.6z M84.4,57.2c-3.5,0-6.3-2.8-6.3-6.3s2.8-6.3,6.3-6.3s6.3,2.8,6.3,6.3S87.9,57.2,84.4,57.2z"/>
</svg>
