<svg version="1.1" 
	xmlns="http://www.w3.org/2000/svg"
	viewBox="0 0 100 100" >
	<path d="M81.1,35.1c0,0.7,0,1.4,0,2.1c0,21.2-16.1,45.6-45.6,45.6c-9.1,0-17.5-2.6-24.6-7.2c1.3,0.1,2.5,0.2,3.9,0.2
		c7.5,0,14.4-2.5,19.9-6.8c-7-0.1-13-4.8-15-11.1c1,0.1,2,0.2,3,0.2c1.4,0,2.9-0.2,4.2-0.5c-7.3-1.5-12.9-7.9-12.9-15.7
		c0,0,0-0.1,0-0.2c2.1,1.2,4.6,1.9,7.2,2c-4.3-2.9-7.1-7.8-7.1-13.3c0-3,0.8-5.7,2.2-8.1c7.9,9.7,19.7,16.1,33,16.8
		c-0.2-1.2-0.4-2.4-0.4-3.7c0-8.8,7.1-16,16-16c4.6,0,8.8,1.9,11.7,5.1c3.6-0.7,7.1-2,10.2-3.9c-1.2,3.7-3.7,6.8-7,8.8
		c3.2-0.3,6.4-1.2,9.2-2.5C86.9,30,84.2,32.8,81.1,35.1z"/>

</svg>
