<svg version="1.1" 
xmlns="http://www.w3.org/2000/svg" 
viewBox="0 0 100 100" >

	<path d="M64.9,55.8c6.1,0,11.3,2.2,15.6,6.5C84.9,66.7,87,71.9,87,78v6.9c0,2.2-0.8,4.1-2.3,5.6c-1.5,1.5-3.4,2.3-5.6,2.3H20.9
		c-2.2,0-4.1-0.8-5.6-2.3C13.7,89,13,87.1,13,84.9V78c0-6.1,2.2-11.3,6.5-15.6c4.4-4.4,9.6-6.5,15.6-6.5h2.8
		c3.9,1.8,7.9,2.6,12.1,2.6c4.2,0,8.2-0.9,12.1-2.6H64.9z M65,44.3c-4.1,4.1-9.1,6.2-15,6.2c-5.8,0-10.8-2.1-15-6.2
		c-4.1-4.1-6.2-9.1-6.2-15c0-5.8,2.1-10.8,6.2-15c4.1-4.1,9.1-6.2,15-6.2c5.8,0,10.8,2.1,15,6.2s6.2,9.1,6.2,15
		C71.2,35.2,69.1,40.2,65,44.3z"/>
</svg>
